<?xml version="1.0" encoding="utf-8"?>
<!-- Generator: Adobe Illustrator 27.4.1, SVG Export Plug-In . SVG Version: 6.00 Build 0)  -->
<svg version="1.1" id="Layer_1" xmlns="http://www.w3.org/2000/svg" xmlns:xlink="http://www.w3.org/1999/xlink" x="0px" y="0px"
	 viewBox="0 0 173 158" style="enable-background:new 0 0 173 158;" xml:space="preserve">
<style type="text/css">
	.st0{fill:#009ADA;}
</style>
<g id="Group_15">
	<g id="Group_14">
		<path id="Path_40" d="M160.2,105.6l-26.4-26.5c-0.5-0.5-1.4-0.5-1.9,0l-3.7,3.7L89.8,44.3c-0.5-0.5-1.4-0.5-1.9,0L57.6,74.6l-6-6
			c-0.5-0.5-1.4-0.5-1.9,0c0,0,0,0,0,0l-36.9,36.9c-0.5,0.5-0.5,1.4,0,1.9c0.5,0.5,1.4,0.5,1.9,0l36-36l6,6l15.1,15.1
			c0.5,0.5,1.4,0.5,1.9,0c0.5-0.5,0.5-1.4,0-1.9l0,0L59.5,76.5l29.4-29.4l37.5,37.5l-3.4,3.4l-13.1-13.1c-0.5-0.5-1.3-0.6-1.9,0
			c-0.5,0.5-0.6,1.3,0,1.9c0,0,0,0,0,0L121,90l-3.4,3.4L95.7,71.6c-0.5-0.5-1.4-0.5-1.9,0c-0.5,0.5-0.5,1.4,0,1.9l22.8,22.8
			c0.5,0.5,1.4,0.5,1.9,0c0,0,0,0,0,0l10.7-10.7l3.7-3.7l25.5,25.5c0.5,0.5,1.4,0.5,1.9,0C160.7,106.9,160.7,106.1,160.2,105.6
			L160.2,105.6z"/>
		<path id="Path_41" d="M136.3,96.6c-0.5-0.5-1.4-0.5-1.9,0c-0.5,0.5-0.5,1.4,0,1.9l9,9c0.5,0.5,1.4,0.5,1.9,0
			c0.5-0.5,0.5-1.3,0-1.8L136.3,96.6z"/>
		<path id="Path_42" d="M53.6,86.8c-0.5-0.5-1.3-0.6-1.9,0c-0.5,0.5-0.6,1.3,0,1.9c0,0,0,0,0,0l18.8,18.8c0.5,0.5,1.4,0.5,1.9,0
			c0.5-0.5,0.5-1.4,0-1.9l0,0L53.6,86.8z"/>
	</g>
	<path id="Path_43" class="st0" d="M130.6,111.3l-12.8-0.2c-1.6,0-4.4,0.5-5.6-0.4c-1.4-1-1.6-4.9-1.7-6.4c0-0.7-0.6-1.3-1.4-1.4
		c-8.3-0.5-16.6-1.7-24.8-3.3l12.7-6.5c0.6-0.4,0.9-1.2,0.5-1.9c-0.1-0.2-0.3-0.3-0.5-0.5c-4.9-3-9.6-6.4-13.9-10.2
		c-1.3-1.2-3.2,0.8-1.9,1.9c3.9,3.4,8,6.5,12.4,9.3l-13.9,7.1c-0.6,0.4-0.8,1.2-0.4,1.9c0.2,0.3,0.5,0.5,0.8,0.6
		c9.2,2.1,18.5,3.5,27.9,4.1c0.3,3.1,0.7,7.5,4,8.2c2.6,0.5,5.8,0.1,8.5,0.2l10.3,0.2c0.7,0,1.3-0.7,1.3-1.4
		C131.8,111.9,131.3,111.4,130.6,111.3z"/>
</g>
</svg>
