<?xml version="1.0" encoding="utf-8"?>
<!-- Generator: Adobe Illustrator 27.4.1, SVG Export Plug-In . SVG Version: 6.00 Build 0)  -->
<svg version="1.1" id="Layer_1" xmlns="http://www.w3.org/2000/svg" xmlns:xlink="http://www.w3.org/1999/xlink" x="0px" y="0px"
	 viewBox="0 0 57.5 52.5" style="enable-background:new 0 0 57.5 52.5;" xml:space="preserve">
<style type="text/css">
	.st0{fill:#009ADA;}
</style>
<g>
	<path class="st0" d="M28.8,50.8c13.5,0,24.5-11,24.5-24.5S42.3,1.8,28.8,1.8S4.3,12.8,4.3,26.3C4.2,39.8,15.2,50.8,28.8,50.8z
		 M28.8,7.2c10.5,0,19.1,8.6,19.1,19.1s-8.6,19.1-19.1,19.1S9.7,36.8,9.7,26.3C9.7,15.7,18.2,7.2,28.8,7.2z"/>
	<path class="st0" d="M21.3,29H26v4.7c0,1.5,1.2,2.7,2.7,2.7s2.7-1.2,2.7-2.7V29h4.7c1.5,0,2.7-1.2,2.7-2.7s-1.2-2.7-2.7-2.7h-4.7
		v-4.7c0-1.5-1.2-2.7-2.7-2.7S26,17.4,26,18.9v4.7h-4.7c-1.5,0-2.7,1.2-2.7,2.7S19.8,29,21.3,29z"/>
</g>
</svg>
